<?xml version="1.0" encoding="utf-8"?>
<!-- Generator: Adobe Illustrator 25.1.0, SVG Export Plug-In . SVG Version: 6.00 Build 0)  -->
<svg version="1.1" id="Layer_1" xmlns="http://www.w3.org/2000/svg" xmlns:xlink="http://www.w3.org/1999/xlink" x="0px" y="0px"
	 viewBox="0 0 70 70" style="enable-background:new 0 0 70 70;" xml:space="preserve">
<style type="text/css">
	.st0{fill:#FFFFFF;}
	.st1{fill:none;stroke:#0A22F4;}
	.st2{fill:none;}
	.st3{fill-rule:evenodd;clip-rule:evenodd;fill:#0A22F4;}
</style>
<g>
	<path class="st0" d="M35,0L35,0c19.3,0,35,15.7,35,35l0,0c0,19.3-15.7,35-35,35l0,0C15.7,70,0,54.3,0,35l0,0C0,15.7,15.7,0,35,0z"
		/>
	<path class="st1" d="M35,0.5L35,0.5c19.1,0,34.5,15.4,34.5,34.5l0,0c0,19.1-15.4,34.5-34.5,34.5l0,0C15.9,69.5,0.5,54.1,0.5,35l0,0
		C0.5,15.9,15.9,0.5,35,0.5z"/>
</g>
<g transform="translate(-633 -5433)">
	<rect x="655" y="5455.5" class="st2" width="26" height="26"/>
	<path class="st3" d="M673.4,5458.5c1.5,0,2.9,0.6,3.9,1.6c1,1.1,1.6,2.5,1.6,4v8.8c0,3.1-2.5,5.6-5.6,5.6h-10.9
		c-3.1,0-5.6-2.5-5.6-5.6v-8.8c0-3.1,2.5-5.6,5.6-5.6c0,0,0,0,0,0H673.4z M675.2,5465.8L675.2,5465.8c0.4-0.4,0.3-0.9,0.1-1.2
		c-0.2-0.2-0.4-0.3-0.6-0.3c-0.2,0-0.5,0.1-0.6,0.2l-5,4c-0.6,0.5-1.6,0.5-2.2,0l-5-4c-0.3-0.3-0.8-0.2-1.1,0.1
		c-0.3,0.3-0.3,0.8-0.1,1.1l0.1,0.1l5,3.9c1.3,1,3,1,4.3,0L675.2,5465.8z"/>
</g>
</svg>
