<?xml version="1.0" encoding="utf-8"?>
<!-- Generator: Adobe Illustrator 25.1.0, SVG Export Plug-In . SVG Version: 6.00 Build 0)  -->
<svg version="1.1" id="Layer_1" xmlns="http://www.w3.org/2000/svg" xmlns:xlink="http://www.w3.org/1999/xlink" x="0px" y="0px"
	 viewBox="0 0 70 70" style="enable-background:new 0 0 70 70;" xml:space="preserve">
<style type="text/css">
	.st0{fill:#FFFFFF;}
	.st1{fill:none;stroke:#0A22F4;}
	.st2{fill:none;}
	.st3{fill:#0A22F4;}
</style>
<g>
	<path class="st0" d="M35,0L35,0c19.3,0,35,15.7,35,35l0,0c0,19.3-15.7,35-35,35l0,0C15.7,70,0,54.3,0,35l0,0C0,15.7,15.7,0,35,0z"
		/>
	<path class="st1" d="M35,0.5L35,0.5c19.1,0,34.5,15.4,34.5,34.5l0,0c0,19.1-15.4,34.5-34.5,34.5l0,0C15.9,69.5,0.5,54.1,0.5,35l0,0
		C0.5,15.9,15.9,0.5,35,0.5z"/>
</g>
<g transform="translate(-262 -5434)">
	<rect x="284" y="5456.5" class="st2" width="26" height="26"/>
	<path class="st3" d="M303.8,5472.1c-0.7-0.1-1.3,0.1-1.8,0.5c-0.5,0.3-1.5,1.1-2.1,0.9c-3.1-1.3-5.6-3.7-6.9-6.8
		c-0.2-0.6,0.6-1.6,0.9-2.1c0.4-0.5,0.6-1.2,0.5-1.9c-0.7-1.3-1.5-2.5-2.6-3.6c-0.3-0.4-0.8-0.6-1.3-0.7c-1.7-0.1-3.5,2.1-3.8,2.7
		c-0.8,1.1-0.8,2.6,0,4.4c2,4.9,9.4,12.2,14.3,14.3c0.8,0.4,1.6,0.6,2.5,0.6c0.7,0,1.4-0.2,1.9-0.6c0.4-0.2,2.7-2.2,2.7-3.9
		c-0.1-0.5-0.3-0.9-0.7-1.3C306.3,5473.7,305.1,5472.8,303.8,5472.1z"/>
</g>
</svg>
